<svg width="277" height="294" viewBox="0 0 277 294" fill="none" xmlns="http://www.w3.org/2000/svg">
<path d="M276.5 169.466C276.5 262.818 206.237 338.431 119.64 338.431C33.0423 338.431 -37.2207 262.818 -37.2207 169.466C-37.2207 76.1132 33.0423 0.500488 119.64 0.500488C206.237 0.500488 276.5 76.1132 276.5 169.466Z" stroke="#516D6F"/>
<path opacity="0.9" d="M256.395 180.291C256.395 267.664 190.633 338.43 109.587 338.43C28.5417 338.43 -37.2207 267.664 -37.2207 180.291C-37.2207 92.9174 28.5417 22.1516 109.587 22.1516C190.633 22.1516 256.395 92.9174 256.395 180.291Z" stroke="#516D6F"/>
<path opacity="0.8" d="M236.29 197.779C236.29 281.013 173.643 348.424 96.4415 348.424C19.2395 348.424 -43.407 281.013 -43.407 197.779C-43.407 114.545 19.2395 47.1347 96.4415 47.1347C173.643 47.1347 236.29 114.545 236.29 197.779Z" stroke="#516D6F"/>
<path opacity="0.7" d="M216.185 213.185C216.185 290.21 158.212 352.587 86.7756 352.587C15.3391 352.587 -42.6337 290.21 -42.6337 213.185C-42.6337 136.16 15.3391 73.7825 86.7756 73.7825C158.212 73.7825 216.185 136.16 216.185 213.185Z" stroke="#516D6F"/>
<path opacity="0.6" d="M193.76 224.011C193.76 295.517 139.942 353.42 73.6301 353.42C7.31831 353.42 -46.5 295.517 -46.5 224.011C-46.5 152.504 7.31831 94.6013 73.6301 94.6013C139.942 94.6013 193.76 152.504 193.76 224.011Z" stroke="#516D6F"/>
<path opacity="0.5" d="M166.696 238.584C166.696 302.042 118.936 353.42 60.0979 353.42C1.25974 353.42 -46.5 302.042 -46.5 238.584C-46.5 175.126 1.25974 123.748 60.0979 123.748C118.936 123.748 166.696 175.126 166.696 238.584Z" stroke="#516D6F"/>
<path opacity="0.4" d="M141.178 252.324C141.178 308.193 99.1304 353.42 47.3389 353.42C-4.45264 353.42 -46.5 308.193 -46.5 252.324C-46.5 196.455 -4.45264 151.228 47.3389 151.228C99.1304 151.228 141.178 196.455 141.178 252.324Z" stroke="#516D6F"/>
</svg>
