<svg width="102" height="18" viewBox="0 0 102 18" fill="none" xmlns="http://www.w3.org/2000/svg">
<path d="M4.016 14.336H9.536V17H0.656V0.248H4.016V14.336ZM24.2716 10.064C24.2716 10.544 24.2396 10.976 24.1756 11.36H14.4556C14.5356 12.32 14.8716 13.072 15.4636 13.616C16.0556 14.16 16.7836 14.432 17.6476 14.432C18.8956 14.432 19.7836 13.896 20.3116 12.824H23.9356C23.5516 14.104 22.8156 15.16 21.7276 15.992C20.6396 16.808 19.3036 17.216 17.7196 17.216C16.4396 17.216 15.2876 16.936 14.2636 16.376C13.2556 15.8 12.4636 14.992 11.8876 13.952C11.3276 12.912 11.0476 11.712 11.0476 10.352C11.0476 8.976 11.3276 7.768 11.8876 6.728C12.4476 5.688 13.2316 4.888 14.2396 4.328C15.2476 3.768 16.4076 3.488 17.7196 3.488C18.9836 3.488 20.1116 3.76 21.1036 4.304C22.1116 4.848 22.8876 5.624 23.4316 6.632C23.9916 7.624 24.2716 8.768 24.2716 10.064ZM20.7916 9.104C20.7756 8.24 20.4636 7.552 19.8556 7.04C19.2476 6.512 18.5036 6.248 17.6236 6.248C16.7916 6.248 16.0876 6.504 15.5116 7.016C14.9516 7.512 14.6076 8.208 14.4796 9.104H20.7916ZM26.1001 10.304C26.1001 8.96 26.3641 7.768 26.8921 6.728C27.4361 5.688 28.1641 4.888 29.0761 4.328C30.0041 3.768 31.0361 3.488 32.1721 3.488C33.1641 3.488 34.0281 3.688 34.7641 4.088C35.5161 4.488 36.1161 4.992 36.5641 5.6V3.704H39.9481V17H36.5641V15.056C36.1321 15.68 35.5321 16.2 34.7641 16.616C34.0121 17.016 33.1401 17.216 32.1481 17.216C31.0281 17.216 30.0041 16.928 29.0761 16.352C28.1641 15.776 27.4361 14.968 26.8921 13.928C26.3641 12.872 26.1001 11.664 26.1001 10.304ZM36.5641 10.352C36.5641 9.536 36.4041 8.84 36.0841 8.264C35.7641 7.672 35.3321 7.224 34.7881 6.92C34.2441 6.6 33.6601 6.44 33.0361 6.44C32.4121 6.44 31.8361 6.592 31.3081 6.896C30.7801 7.2 30.3481 7.648 30.0121 8.24C29.6921 8.816 29.5321 9.504 29.5321 10.304C29.5321 11.104 29.6921 11.808 30.0121 12.416C30.3481 13.008 30.7801 13.464 31.3081 13.784C31.8521 14.104 32.4281 14.264 33.0361 14.264C33.6601 14.264 34.2441 14.112 34.7881 13.808C35.3321 13.488 35.7641 13.04 36.0841 12.464C36.4041 11.872 36.5641 11.168 36.5641 10.352ZM46.8298 5.768C47.2618 5.064 47.8218 4.512 48.5098 4.112C49.2138 3.712 50.0138 3.512 50.9098 3.512V7.04H50.0218C48.9658 7.04 48.1658 7.288 47.6218 7.784C47.0938 8.28 46.8298 9.144 46.8298 10.376V17H43.4698V3.704H46.8298V5.768ZM60.7809 3.512C62.3649 3.512 63.6449 4.016 64.6209 5.024C65.5969 6.016 66.0849 7.408 66.0849 9.2V17H62.7249V9.656C62.7249 8.6 62.4609 7.792 61.9329 7.232C61.4049 6.656 60.6849 6.368 59.7729 6.368C58.8449 6.368 58.1089 6.656 57.5649 7.232C57.0369 7.792 56.7729 8.6 56.7729 9.656V17H53.4129V3.704H56.7729V5.36C57.2209 4.784 57.7889 4.336 58.4769 4.016C59.1809 3.68 59.9489 3.512 60.7809 3.512ZM81.8801 10.064C81.8801 10.544 81.8481 10.976 81.7841 11.36H72.0641C72.1441 12.32 72.4801 13.072 73.0721 13.616C73.6641 14.16 74.3921 14.432 75.2561 14.432C76.5041 14.432 77.3921 13.896 77.9201 12.824H81.5441C81.1601 14.104 80.4241 15.16 79.3361 15.992C78.2481 16.808 76.9121 17.216 75.3281 17.216C74.0481 17.216 72.8961 16.936 71.8721 16.376C70.8641 15.8 70.0721 14.992 69.4961 13.952C68.9361 12.912 68.6561 11.712 68.6561 10.352C68.6561 8.976 68.9361 7.768 69.4961 6.728C70.0561 5.688 70.8401 4.888 71.8481 4.328C72.8561 3.768 74.0161 3.488 75.3281 3.488C76.5921 3.488 77.7201 3.76 78.7121 4.304C79.7201 4.848 80.4961 5.624 81.0401 6.632C81.6001 7.624 81.8801 8.768 81.8801 10.064ZM78.4001 9.104C78.3841 8.24 78.0721 7.552 77.4641 7.04C76.8561 6.512 76.1121 6.248 75.2321 6.248C74.4001 6.248 73.6961 6.504 73.1201 7.016C72.5601 7.512 72.2161 8.208 72.0881 9.104H78.4001ZM89.6606 17.216C88.5726 17.216 87.5966 17.024 86.7326 16.64C85.8686 16.24 85.1806 15.704 84.6686 15.032C84.1726 14.36 83.9006 13.616 83.8526 12.8H87.2366C87.3006 13.312 87.5486 13.736 87.9806 14.072C88.4286 14.408 88.9806 14.576 89.6366 14.576C90.2766 14.576 90.7726 14.448 91.1246 14.192C91.4926 13.936 91.6766 13.608 91.6766 13.208C91.6766 12.776 91.4526 12.456 91.0046 12.248C90.5726 12.024 89.8766 11.784 88.9166 11.528C87.9246 11.288 87.1086 11.04 86.4686 10.784C85.8446 10.528 85.3006 10.136 84.8366 9.608C84.3886 9.08 84.1646 8.368 84.1646 7.472C84.1646 6.736 84.3726 6.064 84.7886 5.456C85.2206 4.848 85.8286 4.368 86.6126 4.016C87.4126 3.664 88.3486 3.488 89.4206 3.488C91.0046 3.488 92.2686 3.888 93.2126 4.688C94.1566 5.472 94.6766 6.536 94.7726 7.88H91.5566C91.5086 7.352 91.2846 6.936 90.8846 6.632C90.5006 6.312 89.9806 6.152 89.3246 6.152C88.7166 6.152 88.2446 6.264 87.9086 6.488C87.5886 6.712 87.4286 7.024 87.4286 7.424C87.4286 7.872 87.6526 8.216 88.1006 8.456C88.5486 8.68 89.2446 8.912 90.1886 9.152C91.1486 9.392 91.9406 9.64 92.5646 9.896C93.1886 10.152 93.7246 10.552 94.1726 11.096C94.6366 11.624 94.8766 12.328 94.8926 13.208C94.8926 13.976 94.6766 14.664 94.2446 15.272C93.8286 15.88 93.2206 16.36 92.4206 16.712C91.6366 17.048 90.7166 17.216 89.6606 17.216Z" fill="white"/>
<path d="M99.3787 17.168C98.7707 17.168 98.2667 16.984 97.8667 16.616C97.4827 16.232 97.2907 15.76 97.2907 15.2C97.2907 14.64 97.4827 14.176 97.8667 13.808C98.2667 13.424 98.7707 13.232 99.3787 13.232C99.9707 13.232 100.459 13.424 100.843 13.808C101.227 14.176 101.419 14.64 101.419 15.2C101.419 15.76 101.227 16.232 100.843 16.616C100.459 16.984 99.9707 17.168 99.3787 17.168Z" fill="#36C2CF"/>
</svg>
